<svg xmlns="http://www.w3.org/2000/svg" height="24px" viewBox="0 -960 960 960" width="24px" fill="#BD4C31"><path d="M480-48q-90 0-168.5-34t-137-92.5Q116-233 82-311.5T48-480q0-75 23-141t65-121q15-20 35.5-20t36.5 12q16 12 21 33t-12 44q-30 41-46.5 89.5T154-480q0 137 94.5 231.5T480-154q137 0 231.5-94.5T806-480q0-55-16.5-103.5T743-673q-17-23-12-44t21-33q16-12 36.5-12t35.5 20q42 55 65 121t23 141q0 90-33.5 168.5t-92 137Q728-116 649-82T480-48Zm0-379q-22 0-37.5-15.5T427-480v-379q0-22 15.5-37.5T480-912q22 0 37.5 15.5T533-859v379q0 22-15.5 37.5T480-427Z"/></svg>